<svg xmlns="http://www.w3.org/2000/svg"  viewBox="0 0 64 64" width="64px" height="64px"><path fill="#c2cde7" d="M59,59H13c-1.105,0-2-0.895-2-2V15c0-1.105,0.895-2,2-2h46c1.105,0,2,0.895,2,2v42 C61,58.105,60.105,59,59,59z"/><path fill="#a8b7d1" d="M61,59H11V41c0-2.761,2.239-5,5-5h40c2.761,0,5,2.239,5,5V59z"/><path fill="#f9e3ae" d="M51,51H5c-1.105,0-2-0.895-2-2V7c0-1.105,0.895-2,2-2h46c1.105,0,2,0.895,2,2v42 C53,50.105,52.105,51,51,51z"/><path fill="#f6d397" d="M53,51H3V33c0-2.761,2.239-5,5-5h40c2.761,0,5,2.239,5,5V51z"/><path fill="#c2cde7" d="M9 11H47V45H9z"/><path fill="#8d6c9f" d="M48,45V11c0-0.552-0.447-1-1-1H9c-0.553,0-1,0.448-1,1v34c0,0.552,0.447,1,1,1h38 C47.553,46,48,45.552,48,45z M46,44H10V12h36V44z"/><path fill="#8d6c9f" d="M59,12h-5V7c0-1.654-1.346-3-3-3H5C3.346,4,2,5.346,2,7v42c0,1.654,1.346,3,3,3h5v5 c0,1.654,1.346,3,3,3h46c1.654,0,3-1.346,3-3V15C62,13.346,60.654,12,59,12z M4,49V7c0-0.551,0.448-1,1-1h46c0.552,0,1,0.449,1,1 v42c0,0.551-0.448,1-1,1H5C4.448,50,4,49.551,4,49z M60,57c0,0.551-0.448,1-1,1H13c-0.552,0-1-0.449-1-1v-5h39 c1.654,0,3-1.346,3-3V14h5c0.552,0,1,0.449,1,1V57z"/><path fill="#8d6c9f" d="M13 42c.553 0 1-.448 1-1v-2c0-.552-.447-1-1-1s-1 .448-1 1v2C12 41.552 12.447 42 13 42zM28 42c.553 0 1-.448 1-1v-2c0-.552-.447-1-1-1s-1 .448-1 1v2C27 41.552 27.447 42 28 42zM33 42c.553 0 1-.448 1-1v-2c0-.552-.447-1-1-1s-1 .448-1 1v2C32 41.552 32.447 42 33 42zM38 42c.553 0 1-.448 1-1v-2c0-.552-.447-1-1-1s-1 .448-1 1v2C37 41.552 37.447 42 38 42zM43 42c.553 0 1-.448 1-1v-2c0-.552-.447-1-1-1s-1 .448-1 1v2C42 41.552 42.447 42 43 42zM18 42c.553 0 1-.448 1-1v-2c0-.552-.447-1-1-1s-1 .448-1 1v2C17 41.552 17.447 42 18 42zM23 42c.553 0 1-.448 1-1v-2c0-.552-.447-1-1-1s-1 .448-1 1v2C22 41.552 22.447 42 23 42z"/></svg>