<svg xmlns="http://www.w3.org/2000/svg"  viewBox="0 0 64 64" width="64px" height="64px"><path fill="#ed7899" d="M50.858,5.859l6.809,6.809c1.562,1.562,1.562,4.095,0,5.657l-3.663,3.663l0,0L41.538,9.522l0,0 l3.663-3.663C46.763,4.297,49.296,4.297,50.858,5.859z"/><path fill="#c2cde7" d="M39.124,8.878L55.126,24.88l-6.619,6.619L32.505,15.497L39.124,8.878z"/><path fill="#f9e3ae" d="M34.127,16.874l12.997,12.997L18.5,58.495L5.503,45.498L34.127,16.874z"/><path fill="#f6d397" d="M42.626,25.375l4.497,4.497L18.5,58.496l-4.497-4.497L42.626,25.375z"/><path fill="#faefde" d="M5,57l1-11l7,1l1,3l2.92,1.5L19,59H7L5,57z"/><path fill="#faefde" d="M34.126,16.874l4.497,4.497L10,49.995l-4.497-4.497L34.126,16.874z"/><path fill="#8d6c9f" d="M60.59,15.9c0.001-1.061-0.42-2.079-1.17-2.83l-8.49-8.48c-1.582-1.516-4.078-1.516-5.66,0L41,8.83 c-0.781-0.781-2.047-0.782-2.828-0.002c-0.001,0.001-0.001,0.001-0.002,0.002l-5.66,5.66c-0.781,0.781-0.782,2.047-0.002,2.828 c0.001,0.001,0.001,0.001,0.002,0.002l0.05,0.05L5.52,44.4c-0.504,0.503-0.812,1.17-0.87,1.88L4,54.68L3.3,59.6 c-0.077,0.547,0.303,1.053,0.85,1.13c0.05,0.007,0.1,0.01,0.15,0.01h0.1L9.32,60l8.45-0.62c0.717-0.053,1.391-0.362,1.9-0.87 l27.08-27c0.774,0.743,1.996,0.743,2.77,0l5.66-5.66c0.781-0.781,0.782-2.047,0.002-2.828c-0.001-0.001-0.001-0.001-0.002-0.002 l4.24-4.24C60.182,18.017,60.604,16.978,60.59,15.9z M11.9,47.9l0.58,2.88c0.08,0.393,0.387,0.7,0.78,0.78l2.88,0.58l1.07,5.34 L9.59,58L6,54.41l0.61-7.6L11.9,47.9z M19,56.35l-1-4.77L34.67,35c0.359-0.419,0.31-1.051-0.109-1.41 c-0.374-0.321-0.927-0.321-1.301,0l-16.6,16.58L14.3,49.7l-0.47-2.36l13.76-13.76c0.359-0.419,0.31-1.051-0.109-1.41 c-0.374-0.321-0.927-0.321-1.301,0L12.42,45.93L7.75,45L34,18.78l11.32,11.31L19,56.35z M52.34,25.8L52.34,25.8 c-0.39-0.388-1.02-0.388-1.41,0l-1.41,1.41c-0.388,0.39-0.388,1.02,0,1.41l0,0L48.1,30l0,0L34,15.9l1.41-1.41 c0.39,0.388,1.02,0.388,1.41,0l1.41-1.41c0.388-0.39,0.388-1.02,0-1.41l1.41-1.41l0.71,0.71l12.7,12.71l0.71,0.71L52.34,25.8z M58,17.31l-4.24,4.24L42.44,10.24L46.69,6c0.781-0.781,2.047-0.782,2.828-0.002C49.519,5.999,49.519,5.999,49.52,6L58,14.49 c0.781,0.781,0.782,2.047,0.002,2.828c-0.001,0.001-0.001,0.001-0.002,0.002V17.31z"/><path fill="#8d6c9f" d="M40.32,15.19l-1.41,1.41c-0.431,0.345-0.501,0.974-0.156,1.406c0.345,0.431,0.974,0.501,1.406,0.156 c0.059-0.048,0.113-0.102,0.161-0.162l1.41-1.41c0.359-0.419,0.31-1.051-0.109-1.41c-0.374-0.321-0.927-0.321-1.301,0V15.19z M43.86,18.73l-1.41,1.41c-0.419,0.359-0.468,0.991-0.109,1.41s0.991,0.468,1.41,0.109c0.039-0.033,0.076-0.07,0.109-0.109 l1.41-1.41c0.359-0.419,0.31-1.051-0.109-1.41C44.787,18.409,44.234,18.409,43.86,18.73z M47.39,22.26L46,23.68 c-0.419,0.359-0.468,0.991-0.109,1.41s0.991,0.468,1.41,0.109c0.039-0.033,0.076-0.07,0.109-0.109l1.41-1.41 c0.359-0.419,0.31-1.051-0.109-1.41c-0.374-0.321-0.927-0.321-1.301,0L47.39,22.26z M31.84,26.51L29,29.33 c-0.419,0.359-0.468,0.991-0.109,1.41c0.359,0.419,0.991,0.468,1.41,0.109c0.039-0.033,0.076-0.07,0.109-0.109l2.83-2.83 c0.359-0.419,0.31-1.051-0.109-1.41c-0.374-0.321-0.927-0.321-1.301,0L31.84,26.51z"/></svg>